<svg xmlns="http://www.w3.org/2000/svg" viewBox="0 0 256 256" width="256" height="256">
  <defs>
    <linearGradient id="arrowGrad" x1="0%" y1="0%" x2="100%" y2="0%">
      <stop offset="0%" stop-color="#18BCF2"/>
      <stop offset="100%" stop-color="#003399"/>
    </linearGradient>
  </defs>

  <!-- Background circle -->
  <circle cx="128" cy="128" r="124" fill="#1C2333"/>
  <circle cx="128" cy="128" r="120" fill="none" stroke="#2A3A52" stroke-width="1.5"/>

  <!-- ============================================ -->
  <!-- HOME ASSISTANT (left) — official logo paths  -->
  <!-- Source: ha-logo-svg.ts (viewBox 0 0 240 240) -->
  <!-- ============================================ -->
  <g transform="translate(16, 75) scale(0.35)">
    <path fill="#18BCF2"
      d="M240 224.762a15 15 0 0 1-15 15H15a15 15 0 0 1-15-15v-90c0-8.25 4.77-19.769 10.61-25.609l98.78-98.7805c5.83-5.83 15.38-5.83 21.21 0l98.79 98.7895c5.83 5.83 10.61 17.36 10.61 25.61v90-.01Z"/>
    <path fill="#F2F4F9"
      d="m107.27 239.762-40.63-40.63c-2.09.72-4.32 1.13-6.64 1.13-11.3 0-20.5-9.2-20.5-20.5s9.2-20.5 20.5-20.5 20.5 9.2 20.5 20.5c0 2.33-.41 4.56-1.13 6.65l31.63 31.63v-115.88c-6.8-3.3395-11.5-10.3195-11.5-18.3895 0-11.3 9.2-20.5 20.5-20.5s20.5 9.2 20.5 20.5c0 8.07-4.7 15.05-11.5 18.3895v81.27l31.46-31.46c-.62-1.96-.96-4.04-.96-6.2 0-11.3 9.2-20.5 20.5-20.5s20.5 9.2 20.5 20.5-9.2 20.5-20.5 20.5c-2.5 0-4.88-.47-7.09-1.29L129 208.892v30.88z"/>
  </g>

  <!-- ============================================ -->
  <!-- SIGNALK BOTTLE (right) — official logo paths -->
  <!-- Source: signal-k-logo-image.svg              -->
  <!-- ============================================ -->
  <g transform="translate(148, 88) scale(0.52)">
    <!-- Wave -->
    <path fill="#003399"
      d="M0.607,75.285c2.957-1.872,10.882,6.629,21.713,14.362c7.039,5.026,18.661,8.853,28.952,8.143
        c16.757-1.156,23.71-4.386,37.85-11.763c11.088-5.785,22.27-13.948,31.82-19.767c5.646-3.441,12.449-6.567,20.107-8.932
        c9.948-3.071,16.148-0.501,16.148,0.494c0,1.708-11.752,7.285-20.688,13.323C125.019,78.909,119.63,82.676,117,84.402
        c-7.518,4.935-20.387,13.411-25.948,16.092c-8.695,4.192-18.633,8.229-30.899,9.782c-16.073,2.035-33.311-1.882-44.718-10.558
        C1.721,89.287-1.548,76.65,0.607,75.285"/>
    <!-- Flask body -->
    <path fill="#003399"
      d="M23.112,84.347c0,0,12.419-32.107,14.23-36.798c5.747-14.886,8.213-22.798,17.158-26.123
        c4.664-1.734,13.022-0.163,16.008,0.066c4.411,0.339,5.467-0.955,6.464-3.449c2.122-5.303,3.954-9.546,3.664-10.414
        c-0.073-0.219-1.474-0.592-1.639-1.253c-0.096-0.386,2.626-6.609,3.278-6.963c0.676-0.365,23.721,8.409,23.914,9.374
        c0.179,0.896-1.929,6.653-2.797,7.135c-0.678,0.377-1.84-0.767-2.7-0.289c-0.607,0.337-1.472,2.853-4.242,9.931
        c-0.868,2.218-0.169,4.714,2.218,6.653c3.085,2.507,9.103,6.307,11.956,11.282c3.761,6.557,1.929,10.501-3.568,24.202
        l-0.385,1.061c0,0-9.427,7.917-26.617,16.06c-10.066,4.768-19.451,7.009-26.897,7.863c-1.202,0.138-4.739-2.688-7.6-2.967
        c-2.857-0.28-10.651,0.869-11.309,0.638C28.789,88.433,23.112,84.347,23.112,84.347"/>
    <!-- Yellow liquid -->
    <path fill="#FFCC00"
      d="M74.562,38.485c0,0-12.623-6.709-17.562-2.973c-4.817,3.645-22.751,54.866-22.751,54.866
        s2.231,0.89,6.573,1.863c2.821,0.632,5.248,0.791,8.143,0.746c2.306-0.036,4.192-0.279,4.192-0.279L74.562,38.485z"/>
  </g>

  <!-- ============================================ -->
  <!-- BIDIRECTIONAL ARROW (center connection)      -->
  <!-- ============================================ -->
  <g transform="translate(120, 128)">
    <!-- Arrow shaft -->
    <rect x="-18" y="-4" width="36" height="8" rx="4" fill="url(#arrowGrad)"/>
    <!-- Left arrowhead (HA blue) -->
    <polygon points="-16,0 -6,-10 -6,10" fill="#18BCF2"/>
    <!-- Right arrowhead (SK blue) -->
    <polygon points="16,0 6,-10 6,10" fill="#003399"/>
  </g>

</svg>
